<svg xmlns="http://www.w3.org/2000/svg" width="1135.417" height="744.053" viewBox="0 0 1135.417 744.053">
  <g id="Group_3" data-name="Group 3" transform="translate(-126.094 -19.476)">
    <path id="Shape" d="M184.545,607.411a48.081,48.081,0,0,0,8.26-32.383,48.152,48.152,0,0,0,31.435,11.319,48.076,48.076,0,0,0-8.256,32.365A48.1,48.1,0,0,0,184.545,607.411Zm-58.451-33.762a44.61,44.61,0,0,0,7.664-30.045,44.679,44.679,0,0,0,29.166,10.5,44.605,44.605,0,0,0-7.66,30.029A44.635,44.635,0,0,0,126.094,573.649Zm56.1-66.217a28.686,28.686,0,0,0,4.929-19.323,28.738,28.738,0,0,0,18.758,6.754,28.685,28.685,0,0,0-4.927,19.312A28.7,28.7,0,0,0,182.2,507.433Z" fill="#fff"/>
    <path id="Op_component_1" data-name="Op component 1" d="M809,19.476l22.982,21.3c-30.867,38.27-60.22,79.532-93.743,115.269Z" fill="#262262"/>
    <path id="Op_component_2" data-name="Op component 2" d="M268.957,717.159l23.081,21.188C327.69,704.492,366.448,671.9,399.362,635.6Z" fill="#262262"/>
    <path id="Op_component_3" data-name="Op component 3" d="M714.178,25.069l23.975,7.1c-8.55,38.3-14.959,78.211-26.305,115.642Z" fill="#262262"/>
    <path id="Op_component_4" data-name="Op component 4" d="M389.106,756.989l24.134,6.54c12.831-37.089,28.327-74.42,38.32-112.234Z" fill="#262262"/>
    <path id="Shape-2" data-name="Shape" d="M1127.039,464.293a40.71,40.71,0,0,0,8.9-26.859,40.733,40.733,0,0,0,27.577,6.307,40.7,40.7,0,0,0-8.9,26.843A40.77,40.77,0,0,0,1127.039,464.293Zm73.334-99.492a68.228,68.228,0,0,0,14.924-45.012,68.255,68.255,0,0,0,46.214,10.57,68.219,68.219,0,0,0-14.917,44.986A68.321,68.321,0,0,0,1200.372,364.8Zm-94.6-7.668a63.3,63.3,0,0,0,13.846-41.763,63.329,63.329,0,0,0,42.879,9.807,63.29,63.29,0,0,0-13.84,41.739A63.4,63.4,0,0,0,1105.77,357.133Z" fill="#262262"/>
    <path id="Shape-3" data-name="Shape" d="M387.845,171.058a48.585,48.585,0,0,0,6.183-33.176,48.559,48.559,0,0,0,33.623,3,48.636,48.636,0,0,0-6.2,33.172A48.562,48.562,0,0,0,387.845,171.058Zm101.8-31.891a28.993,28.993,0,0,0,3.689-19.8,28.982,28.982,0,0,0,20.063,1.79,29.021,29.021,0,0,0-3.7,19.794A28.983,28.983,0,0,0,489.642,139.167ZM412.5,104.924a45.08,45.08,0,0,0,5.737-30.78,45.061,45.061,0,0,0,31.2,2.783,45.131,45.131,0,0,0-5.755,30.778A45.056,45.056,0,0,0,412.5,104.924Z" fill="#fff"/>
  </g>
</svg>
