<svg xmlns="http://www.w3.org/2000/svg" width="145.985" height="116.375" viewBox="0 0 145.985 116.375">
  <path id="Shape" d="M1448.675,648.556a49.686,49.686,0,0,0,23.719-25.016,49.619,49.619,0,0,0,27.185,21.188,49.628,49.628,0,0,0-23.7,25.029A49.625,49.625,0,0,0,1448.675,648.556Zm58.377-46.115a53.54,53.54,0,0,0,25.564-26.961,53.488,53.488,0,0,0,29.3,22.837,53.484,53.484,0,0,0-25.548,26.975A53.493,53.493,0,0,0,1507.052,602.441Zm-91.12-32.971a31.951,31.951,0,0,0,15.254-16.088,31.921,31.921,0,0,0,17.484,13.627,31.918,31.918,0,0,0-15.245,16.1A31.915,31.915,0,0,0,1415.932,569.471Z" transform="translate(-1415.932 -553.382)" fill="#fff"/>
</svg>
