<svg xmlns="http://www.w3.org/2000/svg" width="155.74" height="155.215" viewBox="0 0 155.74 155.215">
  <path id="Shape" d="M1127.039,464.293a40.71,40.71,0,0,0,8.9-26.859,40.733,40.733,0,0,0,27.577,6.307,40.7,40.7,0,0,0-8.9,26.843A40.77,40.77,0,0,0,1127.039,464.293Zm73.334-99.492a68.228,68.228,0,0,0,14.924-45.012,68.255,68.255,0,0,0,46.214,10.57,68.219,68.219,0,0,0-14.917,44.986A68.321,68.321,0,0,0,1200.372,364.8Zm-94.6-7.668a63.3,63.3,0,0,0,13.846-41.763,63.329,63.329,0,0,0,42.879,9.807,63.29,63.29,0,0,0-13.84,41.739A63.4,63.4,0,0,0,1105.77,357.133Z" transform="translate(-1105.77 -315.37)" fill="#262262"/>
</svg>
