<svg xmlns="http://www.w3.org/2000/svg" width="98.147" height="130.603" viewBox="0 0 98.147 130.603">
  <path id="Shape" d="M184.545,607.411a48.081,48.081,0,0,0,8.26-32.383,48.152,48.152,0,0,0,31.435,11.319,48.076,48.076,0,0,0-8.256,32.365A48.1,48.1,0,0,0,184.545,607.411Zm-58.451-33.762a44.61,44.61,0,0,0,7.664-30.045,44.679,44.679,0,0,0,29.166,10.5,44.605,44.605,0,0,0-7.66,30.029A44.635,44.635,0,0,0,126.094,573.649Zm56.1-66.217a28.686,28.686,0,0,0,4.929-19.323,28.738,28.738,0,0,0,18.758,6.754,28.685,28.685,0,0,0-4.927,19.312A28.7,28.7,0,0,0,182.2,507.433Z" transform="translate(-126.094 -488.11)" fill="#fff"/>
</svg>
